<svg xmlns="http://www.w3.org/2000/svg" width="189.527" height="22.007" viewBox="0 0 189.527 22.007">
  <g id="Group_182" data-name="Group 182" transform="translate(0 0)">
    <path id="Path_20" data-name="Path 20" d="M145.135,104.978l-.206,1.714h-6.115l.06-.5c.119-1.062-.264-1.388-1.654-1.388h-1.328c-1.537,0-2.1.206-2.216,1.122l-.119.858a.8.8,0,0,0,.709.945,10.145,10.145,0,0,0,1.241.177l4.2.473c3.4.385,5.111,1.892,5.111,4.521,0,.266-.06.649-.06.856l-.236,2.009c-.443,3.663-3.161,6.026-7.148,6.026h-4.7c-4.7,0-6.854-1.418-6.854-4.579l.06-1,.206-1.743H132.2l-.06.5a2.014,2.014,0,0,0-.03.356c0,1.032.592,1.388,2.335,1.388h1.447c1.388,0,2.126-.413,2.214-1.271l.119-.915a.872.872,0,0,0-.651-1.062,6.482,6.482,0,0,0-1.239-.209l-4.608-.473c-3.1-.353-4.668-1.89-4.668-4.579a9.246,9.246,0,0,1,.089-1.211l.177-1.3a6.49,6.49,0,0,1,2.482-4.666c1.388-1.035,2.865-1.241,5.583-1.241h3.457c4.223,0,6.32,1.507,6.32,4.489A4.343,4.343,0,0,1,145.135,104.978Z" transform="translate(-125.816 -99.78)" fill="#fff"/>
    <path id="Path_21" data-name="Path 21" d="M150.465,108.06l-.087.679h-5.436l.06-.413a3.268,3.268,0,0,0,.028-.562c0-.768-.443-1.152-1.358-1.152h-.649a1.546,1.546,0,0,0-1.36.5,6.423,6.423,0,0,0-.5,2.069l-.264,2.333a6.859,6.859,0,0,0-.119,1.418c0,.856.3,1.152,1.33,1.152h.649c1.211,0,1.564-.413,1.773-1.86l.057-.622h5.436l-.09.977c-.473,3.987-2.512,5.551-7.031,5.551h-2.037c-4.049,0-5.673-1.268-5.673-4.579a8.336,8.336,0,0,1,.119-1.713l.383-3.012c.266-2.305.945-3.929,2.009-4.874s2.746-1.418,5.081-1.418h2.037c4.019,0,5.732,1.211,5.732,4.253A9.748,9.748,0,0,1,150.465,108.06Z" transform="translate(-113.688 -96.214)" fill="#fff"/>
    <path id="Path_22" data-name="Path 22" d="M157.124,108.13l-.206,1.6h-5.111l.147-1.211a5.308,5.308,0,0,0,.03-.59.9.9,0,0,0-1.032-1,1.137,1.137,0,0,0-1.124.532,9.1,9.1,0,0,0-.443,2.007l-1.035,8.478h-5.407l1.863-15.213h5.257L149.887,104a4.384,4.384,0,0,1,3.544-1.447c2.835,0,3.84,1.062,3.84,3.663A13.618,13.618,0,0,1,157.124,108.13Z" transform="translate(-103.656 -96.197)" fill="#fff"/>
    <path id="Path_23" data-name="Path 23" d="M165.181,107.647l-1.271,10.309h-5.436l.119-.885a4.889,4.889,0,0,1-3.25,1.062H153.6c-2.509,0-3.87-1.3-3.87-3.574,0-.236.06-.619.06-.768l.177-1.358c.326-2.688,2.246-4.225,5.436-4.225h1.33a4.271,4.271,0,0,1,2.835.945l.266-2.156c.06-.679-.236-1-.918-1h-.826a3.491,3.491,0,0,0-.739.06c-.356.119-.56.445-.619,1h-5.407c.443-3.308,2.186-4.519,6-4.519h2.305c4.017,0,5.641,1.122,5.641,3.959A8.109,8.109,0,0,1,165.181,107.647Zm-6.086,4.962c.089-.649-.266-.975-1.035-.975h-1.328c-.8,0-1.213.326-1.3.975l-.089.768c-.087.681.266,1,1.064,1h1.33c.766,0,1.179-.323,1.269-1Z" transform="translate(-94.875 -96.214)" fill="#fff"/>
    <path id="Path_24" data-name="Path 24" d="M171.805,104.186l-.5,3.989h-6.441l-.709,5.73c-.03.326-.06.739-.06.858,0,.709.206.915,1.124.915.945,0,1.239-.326,1.358-1.3l.206-1.5h4.608l-.264,1.95c-.385,3.218-2.216,4.842-5.556,4.842H163q-2.839,0-3.9-1.594a3.938,3.938,0,0,1-.532-2.1,11.2,11.2,0,0,1,.087-1.36l.119-.8.681-5.643h-1.746l.5-3.989h1.741l.326-2.835h5.407l-.326,2.835Z" transform="translate(-84.545 -97.747)" fill="#fff"/>
    <path id="Path_25" data-name="Path 25" d="M180.033,108.06l-.089.679h-5.434l.06-.413a3.274,3.274,0,0,0,.028-.562c0-.768-.443-1.152-1.358-1.152h-.649a1.54,1.54,0,0,0-1.36.5,6.423,6.423,0,0,0-.5,2.069l-.266,2.333a6.988,6.988,0,0,0-.117,1.418c0,.856.3,1.152,1.328,1.152h.651c1.211,0,1.564-.413,1.773-1.86l.057-.622h5.436l-.089.977c-.473,3.987-2.512,5.551-7.031,5.551h-2.039c-4.046,0-5.67-1.268-5.67-4.579a8.337,8.337,0,0,1,.119-1.713l.383-3.012c.266-2.305.945-3.929,2.009-4.874s2.746-1.418,5.079-1.418h2.039c4.017,0,5.732,1.211,5.732,4.253A9.758,9.758,0,0,1,180.033,108.06Z" transform="translate(-75.431 -96.214)" fill="#fff"/>
    <path id="Path_26" data-name="Path 26" d="M188.05,111.475l-1.211,9.9h-5.407l1.094-8.861a8.024,8.024,0,0,0,.089-1.035c0-1.035-.356-1.241-1.684-1.241-1.447,0-1.714.592-1.95,2.569l-1.064,8.568h-5.407L175.14,99.9h5.407l-.885,7.267a5.216,5.216,0,0,1,3.987-1.36c3.338,0,4.521,1,4.521,3.812v.885C188.109,110.943,188.079,111.269,188.05,111.475Z" transform="translate(-65.4 -99.63)" fill="#fff"/>
    <path id="Path_27" data-name="Path 27" d="M204.62,99.9l-2.626,21.475h-9.07l-4.4-14.534-1.773,14.534h-6.086L183.294,99.9h9.038l4.434,14.385L198.537,99.9Z" transform="translate(-54.852 -99.63)" fill="#fff"/>
    <path id="Path_28" data-name="Path 28" d="M209.637,99.9l-.622,5.228h-8.687l-.44,3.487h8.182l-.619,5.17h-8.184l-.945,7.59H191.97L194.6,99.9Z" transform="translate(-40.223 -99.63)" fill="#fff"/>
    <path id="Path_29" data-name="Path 29" d="M218.62,99.9,218,105.124h-5.494L210.5,121.371h-6.411l2.009-16.247h-5.524l.622-5.228Z" transform="translate(-29.093 -99.63)" fill="#fff"/>
  </g>
</svg>
